<svg xmlns="http://www.w3.org/2000/svg" width="274.729" height="183.183" viewBox="0 0 274.729 183.183">
  <g id="베이스" transform="matrix(0.921, -0.391, 0.391, 0.921, -7.57, 82.867)">
    <rect id="사각형_27" data-name="사각형 27" width="9.105" height="14.459" rx="1.16" transform="matrix(0.999, 0.033, -0.033, 0.999, 5.904, 55.555)" fill="none" stroke="#fff" stroke-miterlimit="10" stroke-width="1"/>
    <path id="패스_1" data-name="패스 1" d="M140.965,40.038l.508-1.641a2.28,2.28,0,0,0,2.28-1.589,2.328,2.328,0,1,0-4.429-1.433,2.267,2.267,0,0,0,1.121,2.684l-.495,1.615" transform="translate(93.759 11.167)" fill="none" stroke="#fff" stroke-miterlimit="10" stroke-width="1"/>
    <path id="패스_2" data-name="패스 2" d="M145.684,41.5l.508-1.641a2.28,2.28,0,0,0,2.28-1.589,2.32,2.32,0,1,0-4.43-1.381,2.293,2.293,0,0,0,1.121,2.684l-.495,1.615" transform="translate(95.189 12.48)" fill="none" stroke="#fff" stroke-miterlimit="10" stroke-width="1"/>
    <path id="패스_3" data-name="패스 3" d="M150.4,42.909l.508-1.641a2.28,2.28,0,0,0,2.3-1.576,2.32,2.32,0,1,0-4.429-1.381,2.267,2.267,0,0,0,1.121,2.684l-.495,1.615" transform="translate(96.622 13.744)" fill="none" stroke="#fff" stroke-miterlimit="10" stroke-width="1"/>
    <path id="패스_4" data-name="패스 4" d="M155.144,44.393l.508-1.641a2.3,2.3,0,1,0-2.15-2.97,2.28,2.28,0,0,0,1.121,2.684l-.443,1.6" transform="translate(98.052 15.017)" fill="none" stroke="#fff" stroke-miterlimit="10" stroke-width="1"/>
    <path id="패스_5" data-name="패스 5" d="M10.727,26.239S21.65,13.065,46.485,28.807c20.17,12.756,63.195-14.9,77.351,3.644,1.626,2.023,1.056,3.5.207,4.465-1.2,1.385-3.494,1.476-6.03,1.075a41.079,41.079,0,0,0-9.573-.2C94.5,40.215,87.315,48.724,87.9,51.986a1.856,1.856,0,0,0,1.837,1.421L211.3,54.647a.57.57,0,0,1,.448.2.722.722,0,0,1,.17.508c-.177,2.606-.163,11.844-.163,14.358a.682.682,0,0,0,.585.711l6.5.11a1.98,1.98,0,0,1,1.626,1.239,4.176,4.176,0,0,0,5.51,2.751c5.49-1.822,12.412-3.845,15.929-4.81a3.5,3.5,0,0,1,3.657,1.221,15.212,15.212,0,0,0,7.249,5.339c7.654,1.822,10.077-12.026,2.9-14.358-5.885-1.822-29.939-10.04-31.341-10.53-1.787-.638-4.535-2.842-7.8-1.294-1.707.82-2.178,3.189-3.251,5.958-.31.856-3.576.11-3.609,1.075-.114,4.938-.146,10.514-.163,12.519a.715.715,0,0,1-.194.526.765.765,0,0,1-.522.239L10.289,68.1a2.267,2.267,0,0,1-1.268-.565,1.981,1.981,0,0,1,0-2.587,1.586,1.586,0,0,1,.731-.455l212.322,2.3a1.125,1.125,0,0,0,1.034-.386,1.455,1.455,0,0,0,.332-1.163,1.378,1.378,0,0,0-.422-.95,1.085,1.085,0,0,0-.911-.289l-212-2.434a1.512,1.512,0,0,1-1.09-.741,1.887,1.887,0,0,1-.207-1.41,1.416,1.416,0,0,1,1.332-1.239L223.3,60.623s1.983-.257,2.069,1.4v4.358c0,1.093.683,1.822,1.252,1.621,6.323-3.424,18.578,0,19.5-3.644s-11.557-3.644-17.8-7c-4.876-2.606-4.747,0-5.461.342a1.486,1.486,0,0,1-.764.2c-8.127-.091-120.814-1.312-178.043-1.969a1.59,1.59,0,0,0-1.5,1.669L42.13,71.961a1.525,1.525,0,0,0,.336,1.021,1.214,1.214,0,0,0,.885.455l31.175.783A1.934,1.934,0,0,1,76.265,75.9c1.252,6.4,5.023,12.242,14.2,16.4C94.615,94.118,99,94.7,98.776,96.141s-3.949,2.041-7.758,1.33c-9.752-1.712-10.861-4.118-17.506-5.613-13.54-3.061-27.062,4.209-35.6,9.111a27.562,27.562,0,0,1-5.657,2.5s-5.429,1.421-9.167,0A16.259,16.259,0,0,1,12.024,86.942s-.645-5.875,3.647-2.96A33.14,33.14,0,0,0,21.411,87.3c16.033,5.886,13.832-12.756,13.832-12.756H33.987a2.332,2.332,0,0,1-1.743-.831,2.937,2.937,0,0,1-.7-1.974L31.662,57a2.957,2.957,0,0,1,.709-2,2.346,2.346,0,0,1,1.764-.827L33.549,47.6h0c.717-14.725,10.205-6.724,20.756-.675a25.837,25.837,0,0,0,19.634,3.168c8.711-2.551,13.686-2.661,7.607,21.231C79.367,79.9,85.9,88.575,95.406,91.363c3.62,1.093,10.371,0,7.282,4.665-6.322,9.658-24.218,2.5-24.218,2.5S63.846,90.615,51.494,97.01c-6.583,3.424-12.775,8.419-16.465,9.821a22.358,22.358,0,0,1-9.121,1.4h0C8.9,107.325-.146,97.741,0,78.645.1,65.889.373,50.51.373,50.51A36.543,36.543,0,0,1,10.757,26.276" transform="translate(0)" fill="none" stroke="#fff" stroke-miterlimit="10" stroke-width="1"/>
    <rect id="사각형_28" data-name="사각형 28" width="4.937" height="15.293" rx="0.85" transform="matrix(0.999, 0.033, -0.033, 0.999, 35.907, 56.778)" fill="none" stroke="#fff" stroke-miterlimit="10" stroke-width="1"/>
    <rect id="사각형_29" data-name="사각형 29" width="2.085" height="11.815" rx="0.77" transform="translate(9.271 57.36) rotate(0.94)" fill="none" stroke="#fff" stroke-miterlimit="10" stroke-width="1"/>
  </g>
</svg>
