<svg xmlns="http://www.w3.org/2000/svg" width="147.266" height="126.966" viewBox="0 0 147.266 126.966">
  <g id="드럼" transform="translate(-27.832 -0.007)">
    <path id="패스_16" data-name="패스 16" d="M146.06,91.49c0,.566,1.416,12.037,8.1,18.282,5.665,5.282,7.661,6.769,6.2,7.081s-9.474-2.96-14.3-16.866C141.4,86.548,138.1,50.635,138.442,39.83s0-22.885,3.37-20.024c1.9,1.614-1.6,6.358,7.081,6.358,10.918,0,13.906-.142,13.708.977s-11.995,1.912-16.993,1.714-17.956-1.643-22.446.326c-6.7,2.946,0,3.1,1.416,3.016,0,0,18.254.651,17.631,12.745-.694,13.68,2.832,34.5-2.308,42.257-3.413,5.2-8.5,6.188-9.587,8.412a4.248,4.248,0,0,0,.581,4.843c.637.637,13.439,9.913,14.459,10.9,2.691,2.832,2.45,6.4.184,5.523s-7.93-8.327-12.023-12.745-6.939-.991-7.8,1.175-7.59,12.207-11.839,12.235c-3.993,0-3.909-3-1.232-4.319a37.315,37.315,0,0,0,15.337-17.489s2.351-14.161-.467-24.428c-.637-2.322-5.976.3-7.52-2.832-.637-1.317-5.438-18.155,3.314-19.358,0,0,18.693-5.58,21.157-3.427s3.512,15.1,2.28,17.56-28.1,6.812-31.863,5.225c-2.592-1.09-5.664-8.185-5.976-11.2-.411-4.248,4.4-6.585,13.892-9.106,0,0,2.351-.581,1.8-3.824-.467-2.761.85-19.217.765-19.472a4.956,4.956,0,0,0-3.314-4.4c-3.427-1.544-16.639-3.314-22.4-2.068s-7.8,1.416-7.718,6.019-.184,17.886-2.478,21.114-15.2,7.93-15.577,8.072C70.581,55.025,59.252,60.08,57.383,78.7c-1.8,17.418,8.044,33.718,20.321,36.465s36.267,1.6,40.8-24.074S107.91,52.83,94.641,51.584a105.488,105.488,0,0,0-21.936,0" transform="translate(11.986 7.263)" fill="none" stroke="#fff" stroke-miterlimit="10" stroke-width="1"/>
    <path id="패스_17" data-name="패스 17" d="M54.584,26.686a33.435,33.435,0,0,1-9.176-2.195C34.079,20.484,26.6,12.341,28.726,6.323s13.057-7.59,24.4-3.569c7.18,2.535,12.745,6.727,15.422,10.989,3.215,4.348,5.495,19.826-18.877,9.021,0,0-8.624-8.171-2.068-9.913s2.025,21.922,1.416,33.307.651,50.315-10.154,64.589S33.2,124.909,33.2,124.909s3.285.92,8.412-10.069,7.505-18.3,11.159-18.3,4.815,2.053,7.746,10.3,2.549,17.348,8.808,19.571c1.529.552,1.827-3.229,1.175-5.664S56.964,98.314,60.008,96.586s6.571.722,7.661.227.651-1.855-.637-2.308-5.834-1.9-17.971.524a5.268,5.268,0,0,1-6.67-4.178c-1.19-4.787-3.965-27.671,2.634-36.338,2.676-3.526,13.1-.411,15.662,1.048a35.289,35.289,0,0,0,7.661,2.011c9.346,1.671,25.051,2.691,36.069-3.455,15.761-8.794,24.57-9.913,28.719-3.979s-9.162,7.081-23,7.081-45.868,1.657-45.16-6.387,16.554-1.487,19.514.835,5.919,5.211,10.168,2.252,2.351-20.151-.836-23.763-24.74-5.664-31.155,0A9.092,9.092,0,0,0,59,36.472a94.882,94.882,0,0,0,.425,14.714c.368,1.487.977,4.956,8.978,6.358" transform="translate(0 0)" fill="none" stroke="#fff" stroke-miterlimit="10" stroke-width="1"/>
  </g>
</svg>
