<svg xmlns="http://www.w3.org/2000/svg" width="268.863" height="172.676" viewBox="0 0 268.863 172.676">
  <g id="기타" transform="matrix(0.921, -0.391, 0.391, 0.921, -9.483, 82.426)">
    <circle id="타원_5" data-name="타원 5" cx="1.519" cy="1.519" r="1.519" transform="translate(29.777 74.557)" fill="none" stroke="#fff" stroke-miterlimit="10" stroke-width="1"/>
    <path id="패스_18" data-name="패스 18" d="M15.342,66.973h0c1.208.767,3.037-1.274,4.311-3.021a26.287,26.287,0,0,1,2.433-2.841,19.823,19.823,0,0,0,3.07-3.037,3.266,3.266,0,0,0-1.061-4.8h0c-1.633-1.029-3.8.212-5.013,2.123l-3.266,4.147C13.562,63.038,13.725,65.945,15.342,66.973Z" transform="translate(8.933 19.846)" fill="none" stroke="#fff" stroke-miterlimit="10" stroke-width="1"/>
    <path id="패스_19" data-name="패스 19" d="M1.871,47.326c-.784,0-1.861-.653-1.861-1.437V44.077c0-.784,1.078-1.437,1.861-1.437" transform="translate(0 13.351)" fill="none" stroke="#fff" stroke-miterlimit="10" stroke-width="1"/>
    <path id="패스_20" data-name="패스 20" d="M213.176,61.167l-175.922.31a1.059,1.059,0,0,1-1.007-1.094.868.868,0,0,1,.217-.718.859.859,0,0,1,.693-.278H224.533c.487-.735.942-1.11.942-1.633s-.455-.882-.5-.31H37.563c-.959,0-1.349-.49-1.349-.931a.962.962,0,0,1,.861-1.012H225.557v-.245a1.872,1.872,0,0,1,1.885,1.633v3.592c0,.9.65,1.519,1.17,1.323,5.752-2.858,17.045-.18,17.873-3.266s-10.626-2.874-16.395-5.6c-4.42-2.09-4.338,0-5,.327a1.279,1.279,0,0,1-.7.18H36.442a1.125,1.125,0,0,0-.991,1.208,1.336,1.336,0,0,0,1.219,1.241c3.25-.131,3.152,1.045,3.12,2.874,0,2.482.5,15.186-1.072,20.509s-5.947,6.221-4.16,9.405A2.06,2.06,0,0,0,38.278,88a2.13,2.13,0,0,0-.492-1.8,2.107,2.107,0,0,0-1.718-.713,2.541,2.541,0,0,0-2.535,2.547,2.6,2.6,0,0,0,1.82,2.482c1.755.474,3.25-.767,4.306-1.4,6.824-4.164,5.3-8.017,5.3-8.017a2.744,2.744,0,0,0-5.329.931,2.825,2.825,0,0,0,1.625,2.5c.926.441,4.582,1.208,6.5-5.976,1.982-7.691-2.5-7.544-2.5-7.544a2.529,2.529,0,0,0-2.031.838,2.556,2.556,0,0,0-.618,2.117,2.7,2.7,0,0,0,.933,1.931,2.672,2.672,0,0,0,2.041.633,3.079,3.079,0,0,0,3.071-3.086,2.457,2.457,0,0,0-.455-1.355L47.2,70.8c-1.381-1.992.455-5.486.455-5.486l4.663-11.691a2.126,2.126,0,0,0-1.154-2.743h-.179a2.109,2.109,0,0,0-2.73,1.176s-2.941,7.789-4.306,13.406a2.819,2.819,0,0,0,.531,2.38,2.79,2.79,0,0,0,2.183,1.066h13A2.785,2.785,0,0,0,62.472,66.1V52.774a2.1,2.1,0,0,0-2.1-2.106h-.195a2.1,2.1,0,0,0-2.1,2.106V65.429a3.583,3.583,0,0,0,3.575,3.576H73.52A3.567,3.567,0,0,0,77.1,65.413V53.2a2.412,2.412,0,0,0-2.226-2.531h0a2.4,2.4,0,0,0-2.21,2.531s.146,10.646.487,13.389a19.865,19.865,0,0,0,2.015,7.136c1.43,3,5.427,10.156,14.932,9.8,4.095-.147,4.875,1.4,4.663,2.6s-.5,2.417-4.062,2.6c-7,.327-15.923-5.095-22.033-6.27-12.511-2.417-21.838,5.829-29.783,9.6s-10.237,3.266-11.6,1.241c-.276-.392-2.567-3.772,3.168-7.021,6.207-3.56,5.118-20.852,5.118-20.852h-3.25a2.253,2.253,0,0,1-1.619-.67,2.276,2.276,0,0,1-.656-1.632V54.032a2.264,2.264,0,0,1,2.259-2.27h3.25c.52-12.1,12.479-11.348,22.228-6.45s29.393,1.045,29.393,1.045c9.9-1.061,15.322,7.74.211,21.9-3.331,3.021-3.607,6.287-2.925,8.311.975,2.89,3.087,3.576,5.866,3.919,3.412.441,9.57-.343,9.083,4.441C98.056,97.988,72.5,88.191,72.5,88.191s-12.105-5.764-22.553,1.535A57.646,57.646,0,0,1,36.3,96.878,22.322,22.322,0,0,1,27.944,98.1h0C12.28,97.531,1.166,87.9,1.15,72.189c0-10.434.13-23.138.13-23.138A28.653,28.653,0,0,1,31.08,21.57a39.355,39.355,0,0,1,17.873,5.176c4.745,2.743,14.9,6.417,28.516,2.743,19.417-5.274,27.427-4.752,27.427-4.752,6.5.2,9.457,4.392,8.677,8s-3.493,3.756-8.953,3.494c-9.863-.49-11.179,1.992-12.316,4.556a11.482,11.482,0,0,0-.552,7.805,3.8,3.8,0,0,0,3.4,2.253H214.394a.551.551,0,0,1,.413.168.557.557,0,0,1,.155.42c-.146,2.139,0,9.8,0,11.806a.587.587,0,0,0,.536.588h6.012a1.852,1.852,0,0,1,1.625,1.061,3.958,3.958,0,0,0,5.053,2.155c5.037-1.633,11.374-3.266,14.624-4.1a3.434,3.434,0,0,1,3.363.963,14.131,14.131,0,0,0,6.581,4.376c7.036,1.355,9.148-9.993,2.535-11.838-5.443-1.5-27.574-8.034-28.857-8.393-1.625-.506-4.176-2.286-7.166-.98-1.625.686-1.966,2.629-2.876,4.9-.276.7-3.25.114-3.25.914V63.176a.651.651,0,0,1-.666.653H39.837" transform="translate(0.721 0)" fill="none" stroke="#fff" stroke-miterlimit="10" stroke-width="1"/>
    <path id="패스_21" data-name="패스 21" d="M140.4,39.009l.474-1.633a1.372,1.372,0,0,1,1.633-.931l.539.163a1.355,1.355,0,0,1,.914,1.633l-.474,1.633" transform="translate(87.573 9.406)" fill="none" stroke="#fff" stroke-miterlimit="10" stroke-width="1"/>
    <path id="패스_22" data-name="패스 22" d="M143.83,39.944l.474-1.633a1.355,1.355,0,0,1,1.633-.914l.539.163a1.339,1.339,0,0,1,.914,1.633l-.474,1.633" transform="translate(89.744 10.006)" fill="none" stroke="#fff" stroke-miterlimit="10" stroke-width="1"/>
    <path id="패스_23" data-name="패스 23" d="M147.26,40.875l.49-1.633a1.339,1.339,0,0,1,1.633-.914l.555.147a1.355,1.355,0,0,1,.914,1.633l-.49,1.633" transform="translate(91.915 10.593)" fill="none" stroke="#fff" stroke-miterlimit="10" stroke-width="1"/>
    <path id="패스_24" data-name="패스 24" d="M150.7,41.819l.474-1.633a1.372,1.372,0,0,1,1.633-.931l.539.163a1.355,1.355,0,0,1,.914,1.633l-.474,1.633" transform="translate(94.092 11.185)" fill="none" stroke="#fff" stroke-miterlimit="10" stroke-width="1"/>
    <path id="패스_25" data-name="패스 25" d="M154.13,42.754l.474-1.633a1.355,1.355,0,0,1,1.633-.914l.539.163A1.372,1.372,0,0,1,157.706,42l-.49,1.633" transform="translate(96.263 11.784)" fill="none" stroke="#fff" stroke-miterlimit="10" stroke-width="1"/>
  </g>
</svg>
