<svg xmlns="http://www.w3.org/2000/svg" width="123.658" height="154.85" viewBox="0 0 123.658 154.85">
  <path id="피아노" d="M76.863,123.362,27.938,69.6a1.381,1.381,0,0,0-2.086,0c-1.271.995-3.08,3.536.912,4.254s14.572-.166,19.849-.083c4.876,0,12.514-.649,20.028,9.766.856,1.188,3.039,1.243,2.97-1.119A38.91,38.91,0,0,0,62.885,63.9c-.718-.981-2.362-1.713-2.03,1.519s9.282,25.236,11.782,30.388,14.7,6.589,25.3,5.138c0,0,3.633-.856,3.9,1.975s.594,4.282,3.495,4.945,8.909,1.464,13.426.152c1.644-.47.9-2.017-.111-3.287a65.056,65.056,0,0,0-5.083-6.022c-1.588-1.381-3.426-2.238-6.782-1.05s-4.144,1.381-6.064-1.381a43.648,43.648,0,0,1-4.489-24.628c1.6-14.02,10.525-36.162,16.976-43.082S124.71,50.487,124.71,50.79s9.393,40.913-2.528,52.019c-.995.925-2.956-.414-4.213-3.854,0-.18-1.768-5.194-6.133-4.876a36.439,36.439,0,0,0-5.3,1.257c-1.174.539-1.851.276,0-.953a130.279,130.279,0,0,1,16.34-7.417c3.868-1.257,18.219-8.288,22.528-8.522s-1.506,1.782-1.506,1.782-7.542,2.307-8.108,4.406,8.495,18.592,8.495,18.592,1.381,3.439,3.453,2.763c1.285-.428,2.279-1.064,3.3-8.536s5.194-6.478,6.754-4.282,12.68,20.015,14.738,21.852,3.978,2.763,5-2.514c.967-5.028,3.149-11.976-11.4-28.026s-33.344-40.181-37.9-48.469S117.666,9.656,112.389,13.98,92.858,65.156,92.858,65.156a6.23,6.23,0,0,1-4.144,4.227c-3.481.8-12.6,4.517-14.158-1.036S70.122,53.9,64.887,53.9s-7.556,1.685-7.072,3.481,4.24,2.182,10.65-4.834,26.672-42.9,26.672-42.9,2.956-4.738,5.76-.691,5.083,9.476,3.577,12.431c0,0-2.97,4.917-7.183-1.74-1.174-1.851-1.146-4.821,0-4.019s3.937,8.288.649,14.31A10.152,10.152,0,0,1,95.483,32.7c-1.906,1.271-4.406,1.146-5.774-4.254-.525-2.086,1.92-4.144,3.439,2.4C94.529,37.033,90,43.608,85.634,41.053c-2.763-1.588-2.984-3.854-2.058-4.227s5.415,2.334,3.854,8.011c0,0-1.381,6.3-5.788,5.276s-5.428-5.318-4.006-5.346,9.061,4.24,4.379,13.371c-1.243,2.417-3.55,3.771-8.4-.193a6.312,6.312,0,0,1-1.782-2.169c-.718-1.533.995-3.881,2.652-.856,1.92,3.495,1.782,9.945,3.771,10.774a1.671,1.671,0,0,0,2.127-.594C81.891,62.918,110.5,13.869,110.5,13.869s.649-1.381-1.2-2.265-4.724-1.077-6.216-3.412-.953-6.4-.953-6.4a1.077,1.077,0,0,0-.649-1.174C100.9.4,99.847.54,97.941,2.1c-4.144,3.343-11.3,14.42-13.813,16.575s-6.906,5.525-22.1,3.757c-2.583-.3-7.072-2.763-3.633-4.061S79.985,20.4,79.985,20.4s2.763.677,1.713,3.011S66.089,46.964,66.089,46.964" transform="translate(-0.041 178.668) rotate(-90)" fill="none" stroke="#fff" stroke-miterlimit="10" stroke-width="1"/>
</svg>
