<svg version="1.0" xmlns="http://www.w3.org/2000/svg"
 width="340px" height="450px" viewBox="0 0 563.000000 518.000000"
 preserveAspectRatio="xMidYMid meet">

<g transform="translate(40.000000,450.000000) scale(0.100000,-0.100000)"
fill="#000000" stroke="none">
<path d="M4048 4920 c-102 -16 -181 -41 -275 -85 -117 -55 -170 -92 -262 -179
-93 -90 -149 -169 -206 -288 -182 -385 -92 -837 225 -1131 l71 -66 -726 -1173
c-400 -645 -732 -1178 -738 -1185 -10 -10 -679 -173 -712 -173 -7 0 -15 13
-18 29 -4 17 -14 34 -24 39 -13 7 -117 -14 -363 -72 -190 -45 -357 -85 -372
-89 -49 -13 -50 -31 -10 -197 23 -95 43 -157 53 -163 11 -7 121 15 384 77 203
48 376 92 383 98 8 8 12 28 10 56 l-3 45 380 89 c301 71 385 94 402 111 13 12
356 560 763 1217 408 657 746 1194 753 1193 7 -2 58 -18 113 -38 139 -48 268
-63 411 -46 418 48 743 336 845 748 32 129 30 322 -5 453 -93 354 -360 622
-707 709 -97 25 -283 35 -372 21z m342 -151 c303 -77 538 -317 611 -626 18
-74 20 -109 16 -218 -5 -145 -20 -214 -73 -324 -102 -217 -285 -376 -519 -451
-95 -30 -319 -39 -416 -17 -109 26 -181 57 -174 74 3 9 49 86 102 172 53 86
98 157 98 159 1 1 34 -3 74 -10 236 -40 458 118 502 357 25 133 -25 281 -127
381 -220 215 -591 135 -705 -153 -19 -47 -23 -77 -23 -158 0 -120 22 -187 89
-269 l42 -52 -106 -172 c-58 -95 -109 -171 -113 -169 -5 1 -38 31 -74 67 -167
165 -250 369 -247 610 1 137 24 236 83 355 100 202 274 354 487 425 157 52
315 58 473 19z"/>
</g>
</svg>
