<svg xmlns="http://www.w3.org/2000/svg" width="143.292" height="117.009" viewBox="0 0 143.292 117.009">
  <path id="마이크" d="M63.447,3.174S46.694-5.2,36.826,6.507s-2.191,25.4.454,26.167c1.919.558,4.59.8,4.707-6.483S41.714,4.7,44.282,3.07c1.621-1.037,2.956.376,3.41,1.569,0,0,2.892,8.649-.4,21.473S51.025,34,52.7,30.275c0,0,2.7-4.72,2.347-15.145,0,0-.324-6.834-.428-8.792-.078-1.4.117-3.423,1.841-3.579a2.347,2.347,0,0,1,2.593,1.53,16.39,16.39,0,0,1-.532,15.742c-2.593,4.111-9.155,11.281-18.374,9.077a4.655,4.655,0,0,1-2.567-1.439c-.635-.947-.934-2.243,2.114-3.89,3.722-2.14,15.612-5.1,22.913-9.6,3.8-2.36,2.944-4.4.856-4.914a12.072,12.072,0,0,0-4.863.687c-3.021.921-14.186,4.525-20.384,8.221-3.034.921-4.253-2.593-.947-4.9S49.339,2.9,66.831,6.792c3.527.765-2.529,23.444-20.747,32.028a.7.7,0,0,0-.22,1.193,9.634,9.634,0,0,0,2.632,1.4A4.318,4.318,0,0,0,51.09,40.35c2.2-1.738,16.65-9.842,19.45-28.722a.8.8,0,0,1,1.439-.4l7.78,10.685a4.046,4.046,0,0,1,0,4.007S75.052,39.17,68.634,43.1c-4.357,2.684-14.7.207-15.418-.558a1.362,1.362,0,0,1,.985-2.321c1.413,0,11.528,4.02,16.092,6.367S129.254,79,129.254,79s2.075,1.686,4.111-1.3a36.439,36.439,0,0,0,4.318-7.106,3.255,3.255,0,0,0-1.582-4.1L83.351,25.283s-1.115-.584-1.686.117-.311,1.206.182,1.8,8.8,6.263,8.8,6.263a1.88,1.88,0,1,0,2.593,1.984l3.89,3.086-.895,1.128a1.413,1.413,0,0,0,.233,1.984l3.734,2.956a1.4,1.4,0,0,0,1.971-.233l.947-1.115,3.06,2.5a1.958,1.958,0,0,0-1.1,1.686,1.88,1.88,0,0,0,1.88,1.88,1.919,1.919,0,0,0,1.854-1.517l30.472,24.235s.973.791.3,2.723-4.512,5.692-4.512,5.692-1.167.778,1.413,1.906S148,88.756,148,88.756s1.725,1.3,3.67-.778,3.747-3.734,3.358-6.483-11.45-9.609-11.45-9.609-1.374-.778-2.075.207A1.751,1.751,0,0,0,142,74.752c.947.739,21.616,12.293,21.759,12.254a2.593,2.593,0,0,1,1.024,4.1c-1.634,2.788-1.906,3.216-1.906,3.216s-.96,1.3-3.6,0-6-3.32-6-3.32-1.1-.493-.22-1.984,1.491-1.66,1.491-1.66.635-.311,2.114.778,8.416,4.046,10.2,9.816c0,0,1.867,7.7,0,11.813s-3.255,6.7-8.364,6.483S25,116.272,25,116.272" transform="translate(-24.999 0.237)" fill="none" stroke="#fff" stroke-miterlimit="10" stroke-width="1"/>
</svg>
